<svg xmlns="http://www.w3.org/2000/svg" viewBox="0 0 64 64"><g id="Layer_2" data-name="Layer 2"><g id="Layer_4" data-name="Layer 4"><rect width="64" height="64" rx="16.172" style="fill:#fbf7f4"/></g><g id="Layer_2-2" data-name="Layer 2"><path d="M43.8679,21.8162c-.7176.5212-1.4546,1.056-2.1625,1.5947-.0467.035-.0875.0662-.1225.0914-.0525.0389-.09.0661-.107.08l-.0136.01-.0136.01c-.457.3462-.8985.69-1.3147,1.0327a.1926.1926,0,0,0-.0389.0311c-2.0652,1.6938-3.483,3.2593-2.75,4.2434a5.3826,5.3826,0,0,0,1.2466,1.1007l-.0175.0894-1.2622,6L35.737,26.1569a1.2661,1.2661,0,0,0-1.1979-1.0657c-.0175,0-.035-.002-.0525-.002a1.2657,1.2657,0,0,0-1.2272.9665L30.4357,37.658l-1.5188-8.4518c-.0545.1692-.107.3365-.1576.5056.0506-.173.1012-.3461.1537-.5212a21.52,21.52,0,0,1,1.3146-3.5432A19.7207,19.7207,0,0,1,32.54,22.1721a.0448.0448,0,0,0,.0116-.0175c.0156-.0194.0292-.035.0389-.0486a.1206.1206,0,0,1,.0176-.0233l.0116-.0156.0078-.01a1.5577,1.5577,0,0,0,.2411-.667v-.01a7.1512,7.1512,0,0,0,.0467-1.3068v-.0156l.0642-1.76s-.07-.457.6417-1.3943.7293-.6807.7293-.6807a5.7465,5.7465,0,0,1,4.187-1.6141l3.1213,1.04.0058.002.0039-.002c.072-.035,1.3788-.6826,2.641-1.301,1.0579-.5173,2.0847-1.0132,2.3375-1.1124,2.0848-1.1435,1.97,2.2676,2.217,4.0042-.0155.7351-1.4741,1.96-3.3566,3.3683,0,0-.08.0583-.2158.1594-.0584.0448-.1167.0876-.1751.13-.0525.037-.1089.08-.1692.1245-.0447.0331-.0894.0661-.1361.0992-.0933.07-.1945.1439-.3.2217-.0544.0408-.1089.08-.1633.1206-.0953.07-.1945.1439-.2976.2178C43.99,21.7268,43.93,21.7715,43.8679,21.8162Z" style="fill:#57c4e5"/><path d="M49.15,35.4507h-5.593l-1.56-4.8229-.0311-.0972a12.0677,12.0677,0,0,0,2.3142-.7721,12.4464,12.4464,0,0,0,2.5048-.6359l.0175-.0078.0175-.0058C47.5921,29.4824,48.5567,32.3,49.15,35.4507Z" style="fill:#57c4e5"/><path d="M49.4609,43.109c-2.2344,3.8234-6.9018,11.2717-9.4844,14.9958A7.1687,7.1687,0,0,1,33.87,59.7442,20.7937,20.7937,0,0,1,19.3216,42.4148c.0039-.0525.01-.1031.0175-.1556.0078-.0486.0155-.0972.0272-.1458l.002-.01.0058-.0233c.0078-.037.0194-.0759.0292-.1128.41-1.3846,2.2053-2.9365,4.1131-4.2862h.842a1.2657,1.2657,0,0,0,1.2213-.9334l.142-.5271c.632-.3967,1.2174-.7506,1.7-1.0462L29.0063,43.99a1.2641,1.2641,0,0,0,1.2058,1.0385.2794.2794,0,0,0,.0388.0019,1.2678,1.2678,0,0,0,1.2291-.9665l2.746-11.2852,1.6608,10.49a1.264,1.264,0,0,0,2.4853.0623l2.0011-9.5078,1.0619,3.2807a1.2657,1.2657,0,0,0,1.2018.8752H49.531A16.3234,16.3234,0,0,1,49.4609,43.109Z" style="fill:#2e86ab"/><path d="M46.8278,29.107l-.0078.002-.0175.0058-.0175.0078a16.1563,16.1563,0,0,1-4.7879,1.5052l-.0311-.0972-.6476-2.005a1.2648,1.2648,0,0,0-2.4407.1283l-.2858,1.3555-.0175.0894a3.5619,3.5619,0,0,1-1.2291-1.19c-.7332-.9841.6846-2.55,2.75-4.2434a.1926.1926,0,0,1,.0389-.0311c.4162-.3423.8577-.6865,1.3147-1.0327l.0136-.01.0136-.01c.0175-.0137.0545-.0409.107-.08.035-.0252.0758-.0564.1225-.0914.4259-.3131,1.3379-.986,2.1625-1.5947.0622-.0447.1225-.0894.1828-.1341.1031-.0739.2023-.1478.2976-.2178.0544-.0409.1089-.08.1633-.1206.105-.0778.2062-.1517.3-.2217.0467-.0331.0914-.0661.1361-.0992.06-.0447.1167-.0875.1692-.1245.0584-.0427.1167-.0855.1751-.13.1361-.1011.2158-.1594.2158-.1594a10.7175,10.7175,0,0,1,1.42,4.6012A24.1623,24.1623,0,0,1,46.8278,29.107Z" style="fill:#1a5f7a"/><path d="M23.5164,37.6813c-1.9078,1.35-3.7028,2.9016-4.1131,4.2862-.01.0369-.0214.0758-.0292.1128l-.0058.0233-.002.01c-.0117.0486-.0194.0972-.0272.1458-.0078.0525-.0136.1031-.0175.1556a4.7384,4.7384,0,0,1-2.0595-4.7335Z" style="fill:#57c4e5"/><path d="M26.1826,25.4257a1.231,1.231,0,0,0-.2956.5309l-2.4951,9.1966h-5.48c1.0987-2.5962,1.828-4.5526,1.721-6.7385h.002l-.002-.0117a9.8979,9.8979,0,0,0-.4959-2.5942l-.0019-.0059-.5543-2.8976a10.999,10.999,0,0,1-.14-3.8272A4.9859,4.9859,0,0,0,22.4,20.1049a4.72,4.72,0,0,0,2.4814-2.12l.07,1.4508a10.8565,10.8565,0,0,0,.1264,2.674v.0019l.0019.0059a2.2541,2.2541,0,0,0,.177.4881l.0447.1245A27.239,27.239,0,0,0,26.1826,25.4257Z" style="fill:#57c4e5"/><path d="M27.4214,35.1746c-.4823.2956-1.0677.65-1.7,1.0462l1.1357-4.1831Z" style="fill:#57c4e5"/><path d="M19.6347,28.4147h-.002c-.08.0136-2.4056.3753-4.2842.7176-1.688-.3228-.8187-5.0154-.8187-5.0154l4.0508-1.2116.5543,2.8976.0019.0059a9.8979,9.8979,0,0,1,.4959,2.5942Z" style="fill:#1a5f7a"/><path d="M44.3094,14.3485c-1.2622.6184-2.569,1.266-2.641,1.301l-.0039.002-.0058-.002-3.1213-1.04a5.7465,5.7465,0,0,0-4.187,1.6141,6.297,6.297,0,0,0-1.371,2.075l-.002.002v.0019l-.0622,1.7561v.0156a7.1512,7.1512,0,0,1-.0467,1.3068v.01a1.5577,1.5577,0,0,1-.2411.667l-.0078.01-.0116.0156a.1206.1206,0,0,0-.0176.0233c-.01.0136-.0233.0292-.0389.0486a.0448.0448,0,0,1-.0116.0175,23.3875,23.3875,0,0,0-2.17,3.6308,23.7991,23.7991,0,0,0-1.4527,3.4033c-.0545.1692-.107.3365-.1576.5056.0506-.173.1012-.3461.1537-.5212l-.5621-3.1271a1.264,1.264,0,0,0-2.1683-.6378,27.239,27.239,0,0,1-.881-2.6954l-.0447-.1245a2.2541,2.2541,0,0,1-.177-.4881l-.0019-.0059V22.11a10.8565,10.8565,0,0,1-.1264-2.674l-.07-1.4508.5135-1.5382-2.88-4.5351s1.126-1.7542,2.252-1.49c1.39.8265,4.1209,2.0517,4.1209,2.0517L27.7792,6.5482s1.5888-2.0517,3.0124-1.19c1.124,1.6881,2.3492,3.7728,2.3492,3.7728L35.492,4.4965s2.0847-1.126,3.4091.3968a37.0387,37.0387,0,0,1,0,4.1383S43.51,8.7924,44.3094,14.3485Z" style="fill:#1a5f7a"/><path d="M24.8815,17.9851a4.72,4.72,0,0,1-2.4814,2.12,4.9859,4.9859,0,0,1-3.9595-1.0268,4.001,4.001,0,0,1,3.7514-1.9525c.0117,0,.0233.0019.037.0019A5.3055,5.3055,0,0,1,24.8815,17.9851Z" style="fill:#1a5f7a"/></g></g></svg>